<svg width="1637" height="512" viewBox="0 0 1637 512" fill="none" xmlns="http://www.w3.org/2000/svg">
<path d="M199.112 189.055C199.112 193.813 195.272 197.669 190.538 197.669H151.48C146.746 197.669 142.907 193.813 142.907 189.055C142.907 184.297 146.746 180.443 151.48 180.443H190.538C195.273 180.443 199.112 184.298 199.112 189.055Z" fill="#78B591"/>
<path d="M192.551 198.633C225.218 198.633 251.794 225.656 251.794 258.874V319.115C251.794 325.164 246.97 330.067 241.022 330.067H100.998C95.0484 330.067 90.2271 325.163 90.2271 319.115V258.874C90.2271 225.656 116.802 198.633 149.467 198.633H192.551Z" fill="#78B591"/>
<path opacity="0.1" d="M113.082 319.115V258.874C113.082 225.657 139.657 198.633 172.323 198.633H149.467C116.802 198.633 90.2271 225.657 90.2271 258.874V319.115C90.2271 325.164 95.0498 330.068 100.998 330.068H123.853C117.903 330.068 113.082 325.164 113.082 319.115Z" fill="black"/>
<path d="M254.319 307.26C252.222 307.26 250.195 306.461 248.653 305.012C246.978 303.436 246.026 301.233 246.026 298.928V273.506C246.026 269.585 248.745 266.196 252.558 265.363C267.01 262.21 279.879 254.562 289.772 243.246C291.347 241.447 293.615 240.413 296.002 240.413H310.391C312.867 240.413 315.213 241.525 316.787 243.442C318.362 245.36 319.005 247.886 318.535 250.327C312.491 281.734 286.31 305.138 254.87 307.241C254.686 307.255 254.503 307.26 254.319 307.26Z" fill="#A5BC79"/>
<path d="M377.143 398.35C377.143 404.089 372.569 408.74 366.926 408.74H334.232C328.589 408.74 324.015 404.089 324.015 398.35V383.804C324.015 378.066 328.591 373.413 334.232 373.413H366.926C372.57 373.413 377.143 378.066 377.143 383.804V398.35Z" fill="#A5BC79"/>
<path d="M313.794 311.233V367.347C313.794 380.545 324.316 391.243 337.294 391.243H363.859C376.838 391.243 387.359 380.543 387.359 367.347V311.233H313.794Z" fill="#78B591"/>
<path opacity="0.1" d="M333.454 367.347V311.233H313.795V367.347C313.795 380.545 324.317 391.243 337.295 391.243H356.954C343.977 391.243 333.454 380.545 333.454 367.347Z" fill="black"/>
<path d="M336.492 334.4H314.78C311.426 334.4 308.708 331.672 308.708 328.306C308.708 324.942 311.426 322.215 314.78 322.215H336.492C339.846 322.215 342.564 324.943 342.564 328.306C342.564 331.672 339.846 334.4 336.492 334.4Z" fill="#578C6D"/>
<path d="M336.492 353.899H314.78C311.426 353.899 308.708 351.171 308.708 347.805C308.708 344.44 311.426 341.713 314.78 341.713H336.492C339.846 341.713 342.564 344.44 342.564 347.805C342.564 351.171 339.846 353.899 336.492 353.899Z" fill="#578C6D"/>
<path d="M336.492 373.397H314.78C311.426 373.397 308.708 370.669 308.708 367.304C308.708 363.939 311.426 361.211 314.78 361.211H336.492C339.846 361.211 342.564 363.94 342.564 367.304C342.564 370.669 339.846 373.397 336.492 373.397Z" fill="#578C6D"/>
<path d="M146.154 397.048C108.463 397.048 77.7986 365.869 77.7986 327.54V258.032C77.7986 251.051 83.3631 245.393 90.2263 245.393H251.794C258.656 245.393 264.223 251.052 264.223 258.032V327.54C264.223 365.869 233.558 397.048 195.867 397.048H146.154Z" fill="#A5BC79"/>
<path opacity="0.1" d="M108.188 327.54V258.032C108.188 251.051 113.752 245.393 120.615 245.393H90.2263C83.3631 245.393 77.7986 251.052 77.7986 258.032V327.54C77.7986 365.869 108.463 397.048 146.154 397.048H176.543C138.852 397.048 108.188 365.87 108.188 327.54Z" fill="black"/>
<path d="M408.057 222.433H395.339C392.295 222.433 389.829 224.9 389.829 227.944C389.829 230.988 392.295 233.454 395.339 233.454H408.057C415.182 233.454 420.98 239.29 420.98 246.463C420.98 253.636 415.183 259.472 408.057 259.472H371.48C359.925 259.472 350.525 268.904 350.525 280.499V290.574C350.525 293.618 352.991 296.084 356.035 296.084C359.079 296.084 361.545 293.618 361.545 290.574V280.499C361.545 274.981 366.001 270.492 371.48 270.492H408.057C421.26 270.492 432 259.712 432 246.463C432 233.212 421.26 222.433 408.057 222.433Z" fill="#FCE9C3"/>
<path d="M381.116 247.544H352.37C338.694 247.544 327.567 236.377 327.567 222.651C327.567 208.924 338.694 197.758 352.37 197.758H362.692C365.735 197.758 368.202 200.225 368.202 203.268C368.202 206.312 365.735 208.779 362.692 208.779H352.37C344.77 208.779 338.588 215.002 338.588 222.651C338.588 230.301 344.77 236.525 352.37 236.525H381.116C384.16 236.525 386.627 238.991 386.627 242.035C386.627 245.078 384.16 247.544 381.116 247.544Z" fill="#F2D8A0"/>
<path d="M128.444 282.406H78.0708C74.7183 282.406 72 279.678 72 276.313C72 272.947 74.7183 270.22 78.0708 270.22H128.443C131.797 270.22 134.514 272.948 134.514 276.313C134.515 279.678 131.797 282.406 128.444 282.406Z" fill="#7E8E51"/>
<path d="M99.8599 310.887H83.7028C80.3503 310.887 77.6313 308.158 77.6313 304.793C77.6313 301.427 80.3496 298.7 83.7028 298.7H99.8592C103.212 298.7 105.93 301.428 105.93 304.793C105.931 308.158 103.212 310.887 99.8599 310.887Z" fill="#7E8E51"/>
<path d="M263.441 400.409C263.441 405.01 259.727 408.741 255.147 408.741H89.2892C84.7091 408.741 80.9958 405.01 80.9958 400.409V396.242C80.9958 391.642 84.7091 387.911 89.2892 387.911H255.148C259.727 387.911 263.442 391.642 263.442 396.242V400.409H263.441Z" fill="#316638"/>
<path opacity="0.1" d="M111.673 400.409V396.242C111.673 391.642 115.386 387.911 119.967 387.911H89.2892C84.7091 387.911 80.9958 391.642 80.9958 396.242V400.409C80.9958 405.01 84.7091 408.741 89.2892 408.741H119.967C115.386 408.741 111.673 405.01 111.673 400.409Z" fill="black"/>
<path d="M387.361 305.723H376.163C373.12 305.723 370.653 308.189 370.653 311.233C370.653 314.277 373.12 316.744 376.163 316.744H381.851V367.347C381.851 377.485 373.781 385.733 363.861 385.733H337.296C327.376 385.733 319.307 377.485 319.307 367.347V316.744H350.45C353.494 316.744 355.961 314.277 355.961 311.233C355.961 308.189 353.494 305.723 350.45 305.723H313.796C310.752 305.723 308.285 308.189 308.285 311.233V367.347C308.285 376.3 312.258 384.326 318.504 389.723V398.35C318.504 407.118 325.56 414.25 334.231 414.25H366.925C375.597 414.25 382.653 407.118 382.653 398.35V389.722C388.899 384.325 392.87 376.3 392.87 367.347V311.233C392.871 308.189 390.405 305.723 387.361 305.723ZM371.633 398.35C371.633 401.041 369.521 403.23 366.925 403.23H334.231C331.635 403.23 329.524 401.041 329.524 398.35V395.673C331.999 396.371 334.602 396.753 337.295 396.753H363.859C366.551 396.753 369.157 396.371 371.632 395.672L371.633 398.35Z" fill="black"/>
<path d="M321.046 239.945C318.415 236.741 314.531 234.903 310.391 234.903H296.002C292.03 234.903 288.248 236.621 285.624 239.619C280.989 244.92 275.643 249.336 269.763 252.785L269.77 235.428C269.77 232.384 267.304 229.918 264.26 229.918C261.216 229.918 258.749 232.384 258.749 235.428V241.303C257.435 240.742 256.041 240.336 254.59 240.104C247.648 216.486 227.976 198.388 203.678 194.097C204.278 192.528 204.622 190.834 204.622 189.055C204.622 181.268 198.305 174.932 190.539 174.932H151.481C143.715 174.932 137.397 181.268 137.397 189.055C137.397 190.834 137.74 192.529 138.341 194.096C114.043 198.387 94.3714 216.484 87.4295 240.104C85.9775 240.335 84.5839 240.741 83.2691 241.303V198.084C83.2691 148.836 122.629 108.77 171.009 108.77C219.389 108.77 258.749 148.837 258.749 198.084V209.714C258.749 212.758 261.216 215.224 264.26 215.224C267.304 215.224 269.77 212.758 269.77 209.714V198.084C269.77 142.759 225.467 97.749 171.01 97.749C116.553 97.749 72.249 142.759 72.249 198.084L72.287 327.54C72.287 349.175 81.3531 368.697 95.8283 382.401H89.2886C81.6772 382.401 75.4848 388.609 75.4848 396.242V400.409C75.4848 408.042 81.6765 414.251 89.2886 414.251H255.147C262.759 414.251 268.952 408.042 268.952 400.409V396.242C268.952 388.61 262.759 382.401 255.147 382.401H246.191C260.667 368.698 269.732 349.175 269.732 327.54L269.739 310.298C296.987 302.879 318.384 280.268 323.946 251.368C324.727 247.307 323.672 243.143 321.046 239.945ZM151.481 185.953H190.539C192.228 185.953 193.602 187.345 193.602 189.056C193.602 190.768 192.228 192.16 190.539 192.16H151.481C149.792 192.16 148.419 190.768 148.419 189.056C148.419 187.345 149.792 185.953 151.481 185.953ZM149.468 204.142H192.552C215.625 204.142 235.335 219.039 242.932 239.882H99.0887C106.686 219.04 126.395 204.142 149.468 204.142ZM255.147 393.421C256.682 393.421 257.931 394.686 257.931 396.242V400.409C257.931 401.964 256.682 403.229 255.147 403.229H89.2893C87.7543 403.229 86.5063 401.964 86.5063 400.409V396.242C86.5063 394.686 87.7543 393.421 89.2893 393.421H255.147ZM258.712 327.54C258.712 330.888 258.452 334.172 257.963 337.383H144.735C141.692 337.383 139.225 339.85 139.225 342.894C139.225 345.937 141.692 348.404 144.735 348.404H255.271C250.414 362.703 240.714 374.716 228.174 382.401H113.845C101.305 374.715 91.6061 362.702 86.7489 348.404H116.816C119.859 348.404 122.326 345.937 122.326 342.894C122.326 339.85 119.859 337.383 116.816 337.383H84.0573C83.5686 334.173 83.3085 330.888 83.3085 327.54V258.032C83.3085 254.101 86.4121 250.903 90.2265 250.903H251.794C255.609 250.903 258.713 254.1 258.713 258.032V327.54H258.712ZM313.123 249.286C308.569 272.954 291.616 291.671 269.744 298.778L269.758 265.25C278.873 260.91 287.064 254.715 293.918 246.875C294.448 246.27 295.208 245.923 296.002 245.923H310.391C311.22 245.923 311.998 246.293 312.529 246.938C313.068 247.596 313.285 248.451 313.123 249.286Z" fill="black"/>
<path d="M547.93 189.9H530.89C521.93 189.9 515.05 192.14 510.25 196.62C505.61 201.1 503.29 208.46 503.29 218.7H496.09V198.3C496.09 185.5 502.89 179.1 516.49 179.1H629.29V189.9H579.13V337.5H547.93V189.9ZM653.097 210.3C653.097 202.14 651.977 196.14 649.737 192.3C647.497 188.3 643.017 186.3 636.297 186.3H633.897V179.1H739.737C753.337 179.1 760.137 185.5 760.137 198.3V218.7H752.937C752.937 208.78 750.377 201.5 745.257 196.86C740.297 192.22 732.857 189.9 722.937 189.9H684.297V249.9H746.697V260.7H684.297V326.7H725.337C734.457 326.7 742.057 324.7 748.137 320.7C754.217 316.54 759.257 309.42 763.257 299.34L769.737 301.74L762.777 320.7C760.697 326.46 758.217 330.7 755.337 333.42C752.457 336.14 747.977 337.5 741.897 337.5H653.097V210.3ZM924.923 338.46C914.843 338.46 905.723 336.38 897.563 332.22C889.403 327.9 882.763 319.58 877.643 307.26L872.123 293.82H808.283L788.603 337.5H776.123L846.923 179.1H857.723L911.483 307.26C917.563 322.14 925.883 330.14 936.443 331.26V337.26C933.563 338.06 929.723 338.46 924.923 338.46ZM813.323 283.02H867.563L841.163 220.38L813.323 283.02ZM952.394 210.3C952.394 202.14 951.274 196.14 949.034 192.3C946.794 188.3 942.314 186.3 935.594 186.3H933.194V179.1H961.994C967.754 179.1 972.154 180.06 975.194 181.98C978.234 183.9 980.394 187.1 981.674 191.58C982.954 195.9 983.594 202.14 983.594 210.3V326.7H1066.39V337.5H952.394V210.3ZM1217.19 338.46C1207.11 338.46 1197.99 336.38 1189.83 332.22C1181.67 327.9 1175.03 319.58 1169.91 307.26L1164.39 293.82H1100.55L1080.87 337.5H1068.39L1139.19 179.1H1149.99L1203.75 307.26C1209.83 322.14 1218.15 330.14 1228.71 331.26V337.26C1225.83 338.06 1221.99 338.46 1217.19 338.46ZM1105.59 283.02H1159.83L1133.43 220.38L1105.59 283.02ZM1257.38 218.7V337.5H1245.38V207.9C1245.38 201.18 1243.7 195.9 1240.34 192.06C1237.14 188.22 1231.62 186.3 1223.78 186.3H1222.58V179.1H1239.38C1248.34 179.1 1255.62 180.3 1261.22 182.7C1266.98 184.94 1271.78 188.54 1275.62 193.5L1358.18 289.5V179.1H1370.18V338.22H1359.14L1257.38 218.7ZM1410.83 210.3C1410.83 202.14 1409.71 196.14 1407.47 192.3C1405.23 188.3 1400.75 186.3 1394.03 186.3H1391.63V179.1H1456.91C1489.23 179.1 1513.79 185.98 1530.59 199.74C1547.55 213.34 1556.03 232.54 1556.03 257.34C1556.03 273.18 1552.43 287.18 1545.23 299.34C1538.19 311.34 1527.63 320.7 1513.55 327.42C1499.63 334.14 1482.83 337.5 1463.15 337.5H1410.83V210.3ZM1462.43 327.9C1473.63 327.9 1483.55 325.1 1492.19 319.5C1500.99 313.9 1507.79 305.82 1512.59 295.26C1517.55 284.7 1520.03 272.38 1520.03 258.3C1520.03 244.38 1517.55 232.22 1512.59 221.82C1507.79 211.26 1500.99 203.1 1492.19 197.34C1483.39 191.58 1473.31 188.7 1461.95 188.7H1460.03C1454.75 188.7 1450.51 189.02 1447.31 189.66L1442.03 190.38V326.22L1447.31 327.18C1450.67 327.66 1454.91 327.9 1460.03 327.9H1462.43Z" fill="#7E8E51"/>
</svg>